<svg width="48" height="48" viewBox="0 0 48 48" fill="none" xmlns="http://www.w3.org/2000/svg">
<path d="M39.25 44L35.166 40.4L32.864 38.26L30.43 36L31.43 39.518H9.89403C7.73726 39.5103 5.99449 37.7568 6.00001 35.6V9.914C5.9967 7.75879 7.73882 6.00772 9.89403 6H35.356C37.5112 6.00772 39.2533 7.75879 39.25 9.914V44ZM30.2 27.016C29.3567 28.147 28.1426 28.9456 26.77 29.272C27.334 29.992 28.014 30.806 28.02 30.814C30.3142 30.8625 32.4865 29.7834 33.834 27.926C33.765 24.0754 32.8299 20.2898 31.098 16.85C29.5733 15.6535 27.7173 14.9553 25.782 14.85H25.76L25.494 15.154C27.2227 15.6183 28.8347 16.44 30.226 17.566C28.4557 16.5928 26.5129 15.9733 24.506 15.742C23.2305 15.6003 21.9425 15.6131 20.67 15.78C20.5801 15.7818 20.4904 15.7911 20.402 15.808H20.346C18.8547 15.9797 17.3996 16.3846 16.034 17.008C15.35 17.322 14.93 17.55 14.912 17.558C14.894 17.566 14.912 17.558 14.912 17.544C16.3878 16.3833 18.0904 15.5446 19.91 15.082L19.71 14.854H19.698C17.7628 14.9595 15.9069 15.6578 14.382 16.854C12.6438 20.2915 11.7083 24.0786 11.646 27.93C12.9767 29.7998 15.152 30.8829 17.446 30.818C17.446 30.818 18.162 29.946 18.72 29.24C17.382 28.9037 16.2031 28.1116 15.386 27C15.4 27.01 15.598 27.144 15.918 27.32C15.9395 27.3453 15.9661 27.3657 15.996 27.38C16.0214 27.3975 16.0481 27.4129 16.076 27.426C16.1077 27.4404 16.1378 27.4578 16.166 27.478C16.6122 27.724 17.0754 27.9378 17.552 28.118C18.4582 28.4768 19.3955 28.7513 20.352 28.938C21.1895 29.0959 22.0398 29.1762 22.892 29.178C23.6911 29.1779 24.4885 29.1043 25.274 28.958C26.2201 28.7919 27.1441 28.5181 28.028 28.142C28.7915 27.8483 29.52 27.4707 30.2 27.016ZM26.124 26.162C25.2539 26.2379 24.4264 25.7718 24.0403 24.9884C23.6541 24.2049 23.7885 23.2648 24.3787 22.6209C24.9689 21.977 25.8938 21.7614 26.7078 22.0781C27.5218 22.3947 28.058 23.1786 28.058 24.052C28.1021 25.1678 27.2375 26.1101 26.122 26.162H26.124ZM19.188 26.162C18.0937 26.0666 17.2539 25.1505 17.2539 24.052C17.2539 22.9535 18.0937 22.0374 19.188 21.942C19.6921 21.9435 20.1741 22.1492 20.524 22.512C20.9211 22.9241 21.1371 23.4778 21.124 24.05C21.1703 25.1677 20.3036 26.1123 19.186 26.162H19.188Z" fill="white"/>
</svg>
