<svg width="463" height="76" viewBox="0 0 463 76" fill="current" xmlns="http://www.w3.org/2000/svg">
<path d="M132.838 70.0231L100.198 67.2391L133.702 63.6871L87.6217 60.4231L131.11 57.1591L101.062 53.7031L130.63 50.0551L129.67 41.5111L125.35 0.327051H104.134L90.3097 48.5191L84.7417 49.0951L60.5497 0.327051H39.6217L44.8057 50.1511L15.6217 53.3191L45.3817 56.8711L0.93372 60.6151L47.7817 64.1671L14.8537 66.8551L47.1097 70.4071L47.4937 75.4951H62.7577L62.0857 70.1191C62.0857 70.1191 41.3497 68.1031 30.1177 67.2391C41.4457 65.5111 63.6217 63.9751 63.6217 63.9751L14.6617 60.6151C14.6617 60.6151 47.3017 57.7351 62.0857 56.7751C62.0857 56.5831 28.7737 53.5111 28.7737 53.5111C28.7737 53.5111 49.5097 51.1111 60.2617 50.0551L57.0937 20.1031L72.2617 50.4391L43.8457 53.3191L78.5977 56.7751L33.9577 60.5191L80.2297 63.9751L45.7657 67.2391L82.1497 70.1191L84.3577 75.4951H96.3577L96.8377 73.3831L97.6057 70.0231L65.3497 67.4311L100.102 63.9751L54.5017 60.4231L102.118 56.5831L70.9177 53.7031L103.462 50.2471L112.006 19.3351L115.366 50.2471L85.6057 53.7031L115.174 56.6791L72.4537 60.5191L117.574 63.9751L83.7817 67.4311L117.478 70.1191L117.958 75.4951H133.222V75.3031L132.838 70.0231ZM141.808 51.1111L112.144 54.2791C112.144 54.3751 141.328 57.3511 141.328 57.3511L97.5517 61.4791L140.656 64.5511L110.8 68.1991L143.92 70.9831L144.4 75.4951H159.472L159.184 70.7911L124.816 67.9111L158.992 64.4551L113.872 61.2871L156.496 57.4471L125.392 54.3751L157.264 50.9191L151.792 0.327051H136.528L141.808 51.1111ZM174.562 70.5991L175.138 75.4951H190.498L190.018 70.5991L154.786 67.9111L188.674 64.0711L144.226 61.0951L186.754 56.9671L156.226 54.0871L187.81 50.4391L187.714 49.7671L185.026 23.7511L206.146 50.4391C201.058 51.0151 195.49 51.4951 190.69 52.0711C185.89 52.6471 176.29 53.8951 176.29 53.8951L211.042 57.2551L166.69 60.8071L215.17 64.5511L184.45 67.9111C184.45 67.9111 209.218 69.7351 221.794 70.5991L225.922 75.4951H240.898L240.418 70.5991C226.402 69.5431 207.298 67.7191 207.298 67.7191L239.554 63.8791L192.706 60.9031L237.538 57.5431L206.626 53.9911L238.306 50.4391L233.026 0.327051H217.666L222.754 48.7111C222.178 48.7111 221.698 48.7111 221.122 48.8071L182.722 0.327051H167.17L172.354 49.8631L172.45 50.4391L141.25 54.2791L170.146 57.2551L127.138 61.0951L173.026 64.3591L140.098 67.9111C140.098 67.9111 163.042 69.7351 174.562 70.5991ZM242.342 0.135054L243.59 12.4231H269.606L273.446 48.8071L273.638 50.6311L244.454 53.8951L272.87 56.9671L229.67 60.7111L273.35 64.0711L244.454 67.5271L275.654 69.9271L276.23 75.4951H291.59V75.2071L290.918 69.9271L261.542 67.4311L291.014 63.6871L249.83 60.6151L290.342 56.8711L259.142 53.7991L289.094 50.6311L288.806 48.2311L284.966 12.4231H310.982L309.734 0.135054H242.342ZM318.148 0.135054L319.396 12.4231H345.412L349.252 48.8071L349.444 50.6311L320.26 53.8951L348.676 56.9671L305.476 60.7111L349.156 64.0711L320.26 67.5271L351.46 69.9271L352.036 75.4951H367.396V75.2071L366.724 69.9271L337.348 67.4311L366.82 63.6871L325.636 60.6151L366.148 56.8711L334.948 53.7991L364.9 50.6311L364.612 48.2311L360.772 12.4231H386.788L385.54 0.135054H318.148ZM444.616 0.231052L430.12 31.1431L409.096 0.231052H391.336L424.168 48.6151L424.36 50.2471L393.064 53.5111L422.344 56.6791L378.472 60.3271L423.976 64.0711L392.872 67.4311L426.472 70.1191L427.144 75.4951H442.504L441.928 70.1191L408.616 67.2391L439.432 63.6871L397.288 60.4231L438.856 57.2551L410.536 53.8951L439.816 50.2471L439.624 48.5191L462.28 0.231052H444.616Z" fill="white"/>
</svg>
